<?xml version="1.0" encoding="utf-8"?>
<!-- Generator: Adobe Illustrator 23.0.0, SVG Export Plug-In . SVG Version: 6.00 Build 0)  -->
<svg version="1.1" id="Layer_1" xmlns="http://www.w3.org/2000/svg" xmlns:xlink="http://www.w3.org/1999/xlink" x="0px" y="0px"
	 viewBox="0 0 809.01 340.61" style="enable-background:new 0 0 809.01 340.61;" xml:space="preserve">
<style type="text/css">
	.st0{fill:#F7B718;}
	.st1{fill:#305BB2;}
	.st2{fill:#FFFFFF;}
	.st3{fill:#E7A529;}
	.st4{fill:#3F57A6;}
	.st5{fill:#FDFDFD;}
	.st6{fill:#06090A;}
</style>
<path class="st0" d="M114.18,180.62c-6.2,4.08-12.76,7.43-19.82,9.77c-1.48-0.1-2.54,0.82-3.72,1.47
	c-7.85,4.31-14.54,10.15-21.29,15.93c-0.18-2.33,0.84-4.81-2.24-6.44c-7.65-4.03-12.7-1.48-13.49,7.21
	c-0.14,1.57-0.4,2.42-2.18,1.62c-3.41-1.52-6.76-0.99-10.06,0.39c2.32-7.91,6.46-14.89,11.65-21.14c2.46-2.97,1.89-4.16-0.96-6.15
	c-13.51-9.41-22.09-22.14-25.02-38.47c-2.32-12.92-0.65-25.34,5.02-37.18c0.91-1.89,1.13-3.54,0.74-5.67
	c-2.62-14.14-3.4-28.47-4-42.81c-0.01-0.32,0.16-0.64,0.35-1.38c9.08,8.16,19.5,13.72,29.84,19.44c3.05,1.69,5.76,2.06,8.73,0.27
	c8.91-1.7,17.78-2.11,26.7,0.22c11.26,2.95,20.28,9.33,28.1,17.68c6.81,9.1,11.71,19.02,13.18,31.5c1.35-6.57,2.67-12.09,4.94-17.35
	c2.35-5.41,5.74-10.14,9.19-14.85c15.04-15.79,33.09-21.9,54.57-16.96c2.43,1.41,4.61,0.86,7.01-0.39
	c11.15-5.85,22.23-11.78,32.27-21.29c-1.03,8.22-1.82,15.47-2.88,22.67c-1.01,6.91-1.99,13.86-4.18,20.52
	c-0.82,2.5,0.75,4.06,1.73,5.83c14.31,25.89,7.08,59.33-16.58,76.52c-4.98,3.62-10.49,6.19-16.32,8.44
	c7.65,2.65,15.42,4.08,23.48,3.26c20.61-2.08,31.9-15.25,39.15-33.15c2.71-6.69,4.27-13.72,6.15-20.74
	c0,11.44-0.29,22.89,0.09,34.32c0.33,9.92-2.73,18.7-7.69,26.94c-9.61,16-24.5,24.04-42.33,27.4c-5.53,1.04-11.12,1.62-16.76,1.4
	c-0.83-4.58-2.52-8.85-4.81-12.87c-4.52-7.96-10.57-14.7-16.61-21.51c-5.08-5.72-11.94-6.44-18.56-8.15
	c-3.44-2.24-6.87-4.48-10.31-6.72c-11.56-10.06-18.82-22.58-21.72-37.69c-0.06,0.98-0.13,1.96-0.19,2.94
	C131.99,159.42,125.61,171.54,114.18,180.62z M232.97,133.55c0.04-23.49-18.31-42.06-41.59-42.11
	c-23.57-0.05-42.36,18.5-42.41,41.85c-0.05,22.99,18.91,42,41.97,42.1C214.11,175.49,232.93,156.75,232.97,133.55z M123.54,133.34
	c0-23.36-18.5-41.88-41.84-41.9c-23.34-0.02-42.08,18.51-42.16,41.69c-0.08,23.24,18.92,42.29,42.15,42.26
	C104.82,175.36,123.54,156.56,123.54,133.34z"/>
<path class="st1" d="M122.51,95.41c-7.82-8.35-16.84-14.74-28.1-17.68c-8.91-2.33-17.78-1.93-26.7-0.22
	c2.63-16.32,5.26-32.64,7.89-48.96c6.11-0.2,12.11,0.9,18.15,1.51c8.5,0.87,17.11,1.04,25.51,2.5c13.19,2.28,26.23,0.9,39.3-0.41
	c12.69-1.26,25.32-3.11,38.08-3.6c2.54,15.41,5.08,30.82,7.6,46.23c0.16,0.97,0.11,1.97,0.16,2.96
	c-21.48-4.94-39.53,1.17-54.57,16.96C140.65,92.22,131.55,92.63,122.51,95.41z"/>
<path class="st2" d="M196.64,28.55c-12.76,0.49-25.39,2.33-38.08,3.6c-13.06,1.3-26.11,2.69-39.3,0.41
	c-8.39-1.45-17.01-1.63-25.51-2.5c-6.04-0.62-12.04-1.71-18.15-1.51c-5.03-1.66-10.32-1.46-15.48-2.02
	c-18.51-2.01-37.04-3.78-55.57-5.61c-2.66-0.26-4.9-0.53-4.51-4.25c0.23-2.15,0.78-3.03,3.02-3.26c15.9-1.62,31.79-3.37,47.68-5.07
	c22.35-2.39,44.75-4.38,67.02-7.32c14.69-1.94,29.11-0.76,43.63,0.88c17.62,1.98,35.25,3.8,52.88,5.69
	c18.25,1.95,36.51,3.92,54.76,5.85c2.44,0.26,4.79,1.11,4.79,3.74c0,2.45-2.38,3.17-4.6,3.53c-7.24,1.19-7.23,1.21-7.24,8.52
	c-0.02,16.12-0.04,32.25-0.07,48.37c-1.18-0.03-2.37-0.05-3.55-0.08c-0.02-17.49-0.08-34.99-0.04-52.48
	c0.01-2.23-0.2-3.34-2.99-3.03c-18.75,2.04-37.52,3.9-56.28,5.82C198.21,27.9,197.28,27.75,196.64,28.55z"/>
<path class="st2" d="M167.54,186.94c6.62,1.71,13.48,2.43,18.56,8.15c6.04,6.81,12.1,13.56,16.61,21.51
	c2.29,4.03,3.98,8.29,4.81,12.87c1.73,11.32,2.09,22.6-0.95,33.78c-4.71,17.33-14.75,30.9-29.2,41.35
	c-0.48,0.35-1.05,0.56-2.41,1.28c6.02-10.08,10.85-19.77,14.02-30.18c9.83-32.36,4.24-61.35-19.09-86.4
	C169.13,188.49,168.32,187.73,167.54,186.94z"/>
<path class="st2" d="M137.57,232c-0.34,1.92-1.81,2.29-2.93,2.96c-4.28,2.55-8.59,5.06-12.9,7.57c-1.38,0.81-2.62,1.8-1.68,3.56
	c1.06,1.99,2.63,1.38,4.14,0.47c5.44-3.29,10.86-6.6,16.34-9.82c0.92-0.54,2.18-2.06,3.1-0.34c0.67,1.24-0.86,1.84-1.76,2.42
	c-1.26,0.81-2.56,1.55-3.84,2.32c-1.44,0.87-1.76,2.17-0.94,3.51c0.76,1.24,2.06,1.31,3.3,0.62c2.29-1.26,4.55-2.59,6.83-3.86
	c0.97-0.54,2.27-1.43,3-0.28c0.8,1.25-0.68,1.94-1.59,2.49c-2.88,1.73-5.82,3.38-8.73,5.07c-1.46,0.85-2.98,1.86-1.98,3.8
	c1.08,2.08,2.81,1.6,4.47,0.6c3.74-2.25,7.45-4.55,11.23-6.72c2.92-1.68,4.07-1,4.11,2.4c0.05,5.49-0.08,10.99,0.02,16.48
	c0.03,1.84-0.59,2.99-2.11,4c-5.62,3.72-11.12,7.6-16.74,11.31c-3.78,2.49-6.29,2.26-9.83-0.6c-4.56-3.68-9.08-7.43-13.71-11.02
	c-1.74-1.35-2.57-2.92-2.54-5.09c0.05-4.62,0.01-9.24,0.04-13.86c0.02-3.38,1.37-5.83,4.51-7.53c5.47-2.97,10.77-6.27,16.15-9.4
	C134.68,232.4,135.77,231.42,137.57,232z"/>
<path class="st3" d="M195.32,327.36c0.17,2.98-0.75,5.68-2.11,8.25c-1.46,2.75-3.44,4.48-6.57,2.34c-1.46-1-2.26-0.11-3.27,0.57
	c-2.38,1.61-4.9,2.21-7.16,0c-1.4-1.38-2.1-0.34-3.1,0.32c-4.52,2.97-7.46,2.25-10.12-2.45c-1.36-2.41-2.63-5.01-2.58-7.73
	c0.09-5.11-2.61-8.16-6.69-10.36c-2.17-1.17-4.57-2.3-4-5.13c0.61-3.01,3.31-4.67,6.07-4.74c4.31-0.12,8.58-0.48,12.86-0.84
	c0.61-0.05,1.33,0.19,1.84-0.05c7.1-3.33,12.12,1.37,17.24,4.75C192.95,315.74,195.18,321.13,195.32,327.36z M173.23,311.54
	c-0.04,0.59-0.15,0.88-0.05,1.05c0.48,0.87,1,1.71,1.52,2.56c3.37,5.48,4.87,11.24,2.1,17.39c-1.02,2.27-1.24,4.38,1.06,5.45
	c2.52,1.18,4.06-1.04,4.8-2.97C185.89,326.59,184.66,315.8,173.23,311.54z"/>
<path class="st2" d="M69.35,207.79c6.74-5.78,13.44-11.62,21.29-15.93c1.18-0.65,2.24-1.58,3.72-1.47
	c-9.46,12.63-16.5,26.43-19.72,41.97c-5.32,25.69,0.66,48.94,15.56,70.19c0.78,1.11,1.41,2.32,2.12,3.48c0,0-0.21-0.05-0.21-0.05
	c-16.7-8.47-27.64-21.58-32.41-40.18c3.26-0.24,6.28-0.47,9.29-0.7c1.43,0.45,2.51,0.33,2.46-1.56c-0.06-2-0.11-3.99-0.18-5.99
	C70.62,240.96,69.98,224.38,69.35,207.79z"/>
<path class="st3" d="M92.1,305.98c0,0,0.21,0.05,0.21,0.05c5.96,1.61,12,2.57,18.2,2.18c1.84-0.11,3.41,0.61,4.88,1.62
	c3.68,2.53,3.67,5.74-0.27,7.8c-4.75,2.49-8.08,5.62-7.9,11.55c0.06,1.87-1,3.84-1.8,5.66c-2.71,6.15-5.68,7.14-11.28,3.6
	c-1.21-0.76-1.97-0.65-2.96,0c-0.57-1.57,1.14-2.98,0.18-4.68c-2.89-5.06-2.07-10.12-0.2-15.38c0.85-2.38,3.4-3.9,3.38-6.82
	c-8.59,2.98-12.71,11.04-10.52,20.11c1.34,5.55,2.32,6.47,7.19,6.74c-0.5,0.31-0.99,0.86-1.52,0.91c-4.45,0.39-9.06-0.53-13.06-1.55
	c-3.74-0.96-4.4-6.52-4.25-10.74c0.22-6.29,2.59-11.56,8.09-15.08c0,0,0.2,0.21,0.2,0.21c-0.79,2.42-2.64,4.18-3.85,6.34
	c-2.54,4.49-4.12,8.99-1.41,14.1c1.31,2.47,3.46,4.49,5.72,3.78c2.11-0.67,1.36-3.98,0.67-5.68c-2.65-6.47-0.27-12.03,2.79-17.36
	c1.57-2.74,0.68-2.92-1.69-2.68l-0.19-0.23C85.39,308,89.07,307.67,92.1,305.98z"/>
<path class="st3" d="M69.35,207.79c0.63,16.58,1.27,33.17,1.9,49.75c0.08,2,0.13,3.99,0.18,5.99c0.05,1.89-1.03,2.01-2.46,1.56
	c-0.37-10.74-0.74-21.47-1.11-32.21c-0.27-7.86-0.51-15.73-0.8-23.59c-0.12-3.36-2-5.29-5.01-5.23c-3.3,0.07-5.67,2.36-5.57,5.52
	c0.53,17.23,1.09,34.46,1.62,51.68c0.12,4.07-1.41,8.05-0.74,12.17c0.14,0.84-0.27,1.44-1.25,1.43c-0.91-0.01-1.37-0.54-1.46-1.37
	c-0.09-0.87-0.1-1.75-0.13-2.62c-0.56-17.23-1.12-34.46-1.68-51.68c-0.12-3.62-1.91-5.58-5.05-5.52c-3.55,0.07-5.66,2.27-5.55,5.9
	c0.51,16.61,1.05,33.21,1.57,49.82c0.03,1,0.15,2.01,0.05,2.99c-0.11,1.07,0.73,2.78-1.38,2.79c-1.74,0.02-1.37-1.48-1.48-2.5
	c-0.36-3.35-0.65-6.71-0.96-10.06c0.38-15.47-0.31-30.93-0.7-46.39c0.05-1.7,0.57-3.26,1.53-4.67c0.19-0.31,0.38-0.62,0.57-0.93
	c0,0-0.06-0.06-0.07-0.06c3.3-1.38,6.65-1.91,10.06-0.39c1.78,0.79,2.04-0.05,2.18-1.62c0.79-8.68,5.84-11.24,13.49-7.21
	C70.19,202.98,69.17,205.47,69.35,207.79z"/>
<path class="st1" d="M136.09,145.47c-0.06-0.98-0.13-1.96-0.19-2.94c-2.9,15.11-10.16,27.63-21.72,37.69
	c6.62,8.87,13.22,17.75,19.88,26.59c0.45,0.59,0.68,2.04,2.07,1.18C136.11,187.15,136.1,166.31,136.09,145.47z"/>
<path class="st4" d="M136.09,145.47c0.01,20.84,0.03,41.68,0.04,62.52c7.03-9.12,14.07-18.25,21.11-27.37
	C145.79,171.54,139.42,159.42,136.09,145.47z"/>
<path class="st0" d="M39.34,216.24c0.4,15.46,1.09,30.92,0.7,46.39C34.67,247.24,34.34,231.78,39.34,216.24z"/>
<path class="st0" d="M258.37,77.51c1.18,0.02,2.37,0.05,3.55,0.08c4.38,2.65,5.73,5.91,3.86,9.42c-1.3,2.44-3.47,3.57-6.13,3.42
	c-2.69-0.16-4.77-1.64-5.62-4.21c-0.82-2.49-0.46-4.96,1.57-6.86C256.4,78.6,257.44,78.11,258.37,77.51z"/>
<path class="st0" d="M48.36,275.28c2.91-0.86,3.63,0.41,4.15,2.39c0.69,2.64,1.78,5.17,2.56,7.79c0.24,0.8,1.55,1.91,0.16,2.51
	c-1,0.43-2.58,0.7-3.39-0.63c-2.14-3.5-4.67-6.88-6.08-10.67C44.78,274.05,47.87,275.64,48.36,275.28z"/>
<path class="st3" d="M80.48,311.97c0.42-0.33,0.84-0.66,1.26-1c0.12,0.14,0.25,0.27,0.38,0.4c-0.48,0.27-0.96,0.54-1.44,0.81
	L80.48,311.97z"/>
<path class="st0" d="M41.44,210.64c-0.19,0.31-0.38,0.62-0.57,0.93C40.86,211.14,40.94,210.76,41.44,210.64z"/>
<path class="st3" d="M81.75,310.97c0.32-0.18,0.64-0.35,0.96-0.53c0,0,0.19,0.23,0.19,0.22c-0.26,0.23-0.52,0.47-0.78,0.7
	C82,311.24,81.87,311.11,81.75,310.97z"/>
<path class="st5" d="M232.97,133.55c-0.04,23.2-18.86,41.94-42.03,41.84c-23.06-0.09-42.02-19.11-41.97-42.1
	c0.05-23.35,18.84-41.9,42.41-41.85C214.66,91.49,233.01,110.06,232.97,133.55z M190.89,160.05c14.72,0.07,26.24-11.25,26.3-25.85
	c0.07-14.62-11.36-26.2-25.95-26.3c-14.53-0.1-26.23,11.39-26.42,25.94C164.65,148.18,176.38,159.98,190.89,160.05z"/>
<path class="st5" d="M123.54,133.34c0,23.21-18.72,42.02-41.86,42.05c-23.23,0.03-42.23-19.02-42.15-42.26
	c0.08-23.18,18.82-41.71,42.16-41.69C105.05,91.46,123.54,109.98,123.54,133.34z M81.58,160.04c14.73,0.01,26.11-11.34,26.1-26.02
	c-0.01-14.65-11.43-26.09-26.08-26.13c-14.48-0.04-26.28,11.7-26.27,26.11C55.35,148.51,66.98,160.04,81.58,160.04z"/>
<path class="st2" d="M122.51,95.41c9.04-2.78,18.14-3.19,27.31-0.7c-3.45,4.71-6.84,9.44-9.19,14.85
	c-2.28,5.26-3.6,10.78-4.94,17.35C134.22,114.43,129.32,104.5,122.51,95.41z"/>
<path class="st0" d="M173.23,311.54c11.43,4.26,12.66,15.05,9.43,23.49c-0.74,1.93-2.27,4.15-4.8,2.97
	c-2.3-1.07-2.08-3.18-1.06-5.45c2.77-6.15,1.27-11.92-2.1-17.39c-0.52-0.85-1.05-1.69-1.52-2.56
	C173.08,312.42,173.19,312.13,173.23,311.54z"/>
<path class="st0" d="M91.22,338.43c-4.87-0.27-5.85-1.19-7.19-6.74c-2.19-9.07,1.93-17.13,10.52-20.11
	c0.02,2.92-2.53,4.45-3.38,6.82c-1.87,5.26-2.69,10.32,0.2,15.38c0.97,1.7-0.75,3.11-0.18,4.68
	C91.19,338.46,91.22,338.43,91.22,338.43z"/>
<path class="st0" d="M82.13,311.37c0.26-0.23,0.52-0.47,0.78-0.7c2.36-0.24,3.25-0.05,1.69,2.68c-3.05,5.34-5.44,10.89-2.79,17.36
	c0.69,1.7,1.45,5.01-0.67,5.68c-2.26,0.71-4.41-1.31-5.72-3.78c-2.71-5.11-1.13-9.61,1.41-14.1c1.22-2.15,3.07-3.92,3.85-6.34
	C81.17,311.91,81.65,311.64,82.13,311.37z"/>
<path class="st4" d="M190.89,160.05c-14.52-0.07-26.24-11.86-26.06-26.21c0.19-14.55,11.89-26.03,26.42-25.94
	c14.59,0.1,26.01,11.68,25.95,26.3C217.13,148.79,205.61,160.12,190.89,160.05z M189.04,120.1c-1.08-0.77-1.84-1.89-3.25-2.33
	c-5.56-1.75-9.3,2.54-8.05,9.34c-0.26,0.96-0.54,1.91-0.79,2.87c-2.16,8.22,2.4,16.29,10.39,18.38c8.13,2.13,16.29-2.87,18.14-11.3
	c1.19-5.43-0.46-10.25-4.59-13.83C197.6,120.38,193.76,118.22,189.04,120.1z"/>
<path class="st4" d="M81.58,160.04c-14.61-0.01-26.23-11.54-26.25-26.04c-0.02-14.41,11.79-26.15,26.27-26.11
	c14.65,0.04,26.07,11.48,26.08,26.13C107.69,148.7,96.31,160.05,81.58,160.04z M67.22,128.73c-2.18,8.14,0.51,15.01,7.25,18.47
	c6.27,3.22,13.87,1.38,18.41-4.46c3.68-4.74,3.73-12.23,0.24-17.18c-3.39-4.81-11-7.85-15.73-5.41c-2.76-2.47-5.74-3.29-8.96-0.93
	C65.51,121.34,65.18,124.36,67.22,128.73z"/>
<path class="st6" d="M189.04,120.1c4.72-1.88,8.56,0.27,11.86,3.13c4.13,3.58,5.78,8.39,4.59,13.83
	c-1.85,8.43-10.01,13.43-18.14,11.3c-7.99-2.09-12.55-10.16-10.39-18.38c0.25-0.96,0.53-1.92,0.79-2.88
	c3.32,3.45,6.4,4.16,9.41,2.19C190.17,127.33,190.79,124.31,189.04,120.1z"/>
<path class="st5" d="M189.04,120.1c1.75,4.21,1.13,7.23-1.89,9.2c-3.02,1.97-6.09,1.25-9.41-2.19c-1.24-6.8,2.5-11.09,8.05-9.34
	C187.2,118.21,187.96,119.33,189.04,120.1z"/>
<path class="st6" d="M77.38,120.14c4.74-2.44,12.35,0.6,15.73,5.41c3.49,4.95,3.45,12.45-0.24,17.18
	c-4.54,5.84-12.14,7.69-18.41,4.46c-6.73-3.46-9.43-10.33-7.25-18.47c2.95,2.17,6,3.11,9.18,0.53
	C79.05,127.1,79.31,124.21,77.38,120.14z"/>
<path class="st5" d="M77.38,120.14c1.94,4.06,1.67,6.96-0.98,9.11c-3.18,2.59-6.24,1.65-9.18-0.53c-2.04-4.37-1.71-7.39,1.2-9.51
	C71.64,116.86,74.61,117.67,77.38,120.14z"/>
<g>
	<path id="path833" class="st2" d="M351.61,119.99c9.59,0,18.92,2.46,28.01,7.37c9.09,4.91,16.21,11.94,21.36,21.07
		c5.15,9.14,7.72,18.66,7.72,28.58c0,9.87-2.5,19.33-7.51,28.37c-5.01,9.04-12.04,16.06-21.11,21.07
		c-9.07,5.01-18.56,7.51-28.48,7.51c-9.82,0-19.27-2.5-28.33-7.51c-9.07-5.01-16.1-12.03-21.11-21.07s-7.51-18.5-7.51-28.37
		c0-9.92,2.54-19.44,7.62-28.58c5.08-9.14,12.16-16.16,21.25-21.07C332.61,122.45,341.97,119.99,351.61,119.99z M337.69,151.99
		c-4.53,2.44-8.08,5.96-10.64,10.54c-2.56,4.58-3.84,9.36-3.84,14.34c0,4.94,1.26,9.66,3.77,14.17c2.51,4.51,6.04,8.02,10.57,10.54
		c4.53,2.52,9.27,3.77,14.2,3.77c4.94,0,9.67-1.26,14.2-3.77c4.53-2.51,8.06-6.02,10.57-10.54c2.51-4.51,3.77-9.23,3.77-14.17
		c0-4.98-1.28-9.76-3.84-14.34s-6.12-8.09-10.68-10.54c-4.56-2.44-9.23-3.67-14.02-3.67C346.91,148.33,342.22,149.55,337.69,151.99z
		"/>
	<path id="path835" class="st2" d="M423.01,219.8v-85.43c-0.05-9.59,4.7-14.33,14.24-14.24c9.44,0.1,14.19,4.84,14.24,14.24v50.05
		c9.49-9.49,15.46-15.47,17.9-17.94c2.44-2.47,5.94-3.7,10.5-3.7c4.7,0,8.22,1.2,10.57,3.59c2.35,2.4,8.29,8.51,17.83,18.33v-50.33
		c0.14-9.54,4.91-14.33,14.31-14.38c9.59,0.14,14.38,4.94,14.38,14.38l-0.07,85.43c-0.05,9.4-4.79,14.12-14.24,14.17
		c-4.7,0-8.23-1.22-10.61-3.66c-2.37-2.44-13.05-13.16-32.04-32.15c-19.22,19.13-29.97,29.85-32.25,32.18
		c-2.28,2.33-5.81,3.54-10.61,3.63C427.73,233.97,423.01,229.24,423.01,219.8z"/>
	<path id="path837" class="st2" d="M565.39,119.85c9.54,0.24,14.36,4.89,14.45,13.95l-0.14,71.47h56.6
		c9.59,0.05,14.38,4.84,14.38,14.38c-0.05,9.35-4.75,14.07-14.1,14.17h-71.19c-9.45,0-14.19-4.6-14.24-13.81v-85.78
		C551.2,124.83,555.94,120.04,565.39,119.85z"/>
	<path id="path839" class="st2" d="M679.15,119.99c9.49,0.1,14.31,4.79,14.45,14.1v85.57c-0.09,9.49-4.86,14.31-14.31,14.45
		c-9.49-0.19-14.24-4.98-14.24-14.38v-85.57C665,124.76,669.7,120.04,679.15,119.99z"/>
	<path id="path841" class="st2" d="M722.36,119.71c4.75,0,8.32,1.16,10.72,3.49c2.39,2.33,10.83,12.24,25.31,29.76
		c14.71-17.8,23.27-27.84,25.67-30.15c2.39-2.3,5.97-3.45,10.71-3.45c4.65,0,8.23,1.2,10.72,3.59c2.49,2.4,3.66,5.99,3.52,10.78
		c0,5.03-2.51,9.73-7.54,14.1l-24.2,28.62l24.27,28.26c5.36,5.03,7.83,9.87,7.4,14.52c0.24,4.8-0.94,8.39-3.52,10.79
		c-2.59,2.4-6.18,3.55-10.79,3.45c-4.89,0.05-8.55-1.18-11-3.7c-2.45-2.51-10.74-12.34-24.88-29.47
		c-14.38,17.42-22.79,27.38-25.23,29.87c-2.45,2.49-6.11,3.71-11,3.66c-4.6,0.09-8.2-1.05-10.78-3.45
		c-2.59-2.4-3.76-5.99-3.53-10.79c-0.43-4.65,2.04-9.47,7.4-14.45l25.34-28.33l-25.27-28.55c-5.03-4.41-7.54-9.14-7.54-14.17
		c-0.14-4.79,1.04-8.39,3.53-10.78C714.14,120.91,717.71,119.71,722.36,119.71L722.36,119.71z"/>
</g>
</svg>
