<?xml version="1.0" encoding="UTF-8" standalone="no"?>
<svg
   xmlns:dc="http://purl.org/dc/elements/1.1/"
   xmlns:cc="http://creativecommons.org/ns#"
   xmlns:rdf="http://www.w3.org/1999/02/22-rdf-syntax-ns#"
   xmlns:svg="http://www.w3.org/2000/svg"
   xmlns="http://www.w3.org/2000/svg"
   xmlns:sodipodi="http://sodipodi.sourceforge.net/DTD/sodipodi-0.dtd"
   xmlns:inkscape="http://www.inkscape.org/namespaces/inkscape"
   inkscape:version="1.0rc1 (09960d6, 2020-04-09)"
   sodipodi:docname="ic_logo_text.svg"
   xml:space="preserve"
   enable-background="new 0 0 250 100"
   viewBox="0 0 211.67581 47.224998"
   height="47.224998"
   width="211.67581"
   y="0px"
   x="0px"
   id="Layer_1"
   version="1.1"><metadata
   id="metadata862"><rdf:RDF><cc:Work
       rdf:about=""><dc:format>image/svg+xml</dc:format><dc:type
         rdf:resource="http://purl.org/dc/dcmitype/StillImage" /><dc:title></dc:title></cc:Work></rdf:RDF></metadata><defs
   id="defs860" /><sodipodi:namedview
   inkscape:current-layer="Layer_1"
   inkscape:window-maximized="0"
   inkscape:window-y="23"
   inkscape:window-x="0"
   inkscape:cy="0.1570775"
   inkscape:cx="92.987117"
   inkscape:zoom="0.65225368"
   showgrid="false"
   id="namedview858"
   inkscape:window-height="480"
   inkscape:window-width="776"
   inkscape:pageshadow="2"
   inkscape:pageopacity="0"
   guidetolerance="10"
   gridtolerance="10"
   objecttolerance="10"
   borderopacity="1"
   bordercolor="#666666"
   pagecolor="#ffffff" />
<g
   transform="translate(-19.501,-23.714)"
   id="g843">
	<path
   inkscape:connector-curvature="0"
   id="path833"
   d="m 42.94,23.977 c 3.945,0 7.788,1.011 11.528,3.032 3.74,2.021 6.669,4.912 8.789,8.672 2.119,3.76 3.179,7.681 3.179,11.763 0,4.062 -1.03,7.955 -3.091,11.675 -2.061,3.721 -4.956,6.611 -8.687,8.672 -3.731,2.061 -7.637,3.09 -11.719,3.09 -4.043,0 -7.93,-1.029 -11.66,-3.09 -3.731,-2.061 -6.626,-4.951 -8.687,-8.672 -2.061,-3.721 -3.091,-7.613 -3.091,-11.675 0,-4.082 1.044,-8.002 3.135,-11.763 2.09,-3.76 5.005,-6.65 8.745,-8.672 3.741,-2.021 7.594,-3.032 11.559,-3.032 z m -5.728,13.169 c -1.865,1.006 -3.325,2.451 -4.38,4.336 -1.055,1.885 -1.582,3.853 -1.582,5.903 0,2.032 0.517,3.974 1.553,5.83 1.035,1.856 2.485,3.301 4.351,4.336 1.865,1.036 3.813,1.553 5.845,1.553 2.031,0 3.979,-0.517 5.845,-1.553 1.865,-1.035 3.315,-2.479 4.351,-4.336 1.035,-1.855 1.553,-3.798 1.553,-5.83 0,-2.051 -0.527,-4.018 -1.582,-5.903 -1.055,-1.885 -2.52,-3.33 -4.395,-4.336 C 46.896,36.14 44.972,35.637 43,35.637 c -1.994,0 -3.923,0.503 -5.788,1.509 z"
   fill="#223f82" />
	<path
   inkscape:connector-curvature="0"
   id="path835"
   d="M 72.325,65.051 V 29.895 c -0.02,-3.945 1.934,-5.898 5.859,-5.859 3.886,0.04 5.84,1.992 5.859,5.859 v 20.596 c 3.906,-3.906 6.362,-6.367 7.368,-7.383 1.006,-1.015 2.446,-1.523 4.321,-1.523 1.934,0 3.384,0.494 4.351,1.479 0.967,0.986 3.413,3.501 7.339,7.544 V 29.895 c 0.059,-3.926 2.021,-5.898 5.889,-5.918 3.945,0.059 5.918,2.032 5.918,5.918 L 119.2,65.051 c -0.02,3.867 -1.973,5.811 -5.859,5.83 -1.934,0 -3.389,-0.502 -4.365,-1.508 -0.977,-1.006 -5.372,-5.416 -13.184,-13.229 -7.91,7.871 -12.334,12.286 -13.271,13.242 -0.938,0.957 -2.393,1.455 -4.365,1.494 -3.888,0.001 -5.831,-1.942 -5.831,-5.829 z"
   fill="#223f82" />
	<path
   inkscape:connector-curvature="0"
   id="path837"
   d="m 130.918,23.918 c 3.926,0.098 5.908,2.012 5.947,5.742 l -0.059,29.414 h 23.291 c 3.945,0.02 5.918,1.992 5.918,5.918 -0.02,3.849 -1.953,5.791 -5.801,5.83 h -29.297 c -3.887,0 -5.84,-1.894 -5.859,-5.684 V 29.836 c 0.02,-3.867 1.973,-5.839 5.86,-5.918 z"
   fill="#223f82" />
	<path
   inkscape:connector-curvature="0"
   id="path839"
   d="m 177.734,23.977 c 3.906,0.04 5.889,1.973 5.947,5.801 v 35.214 c -0.039,3.907 -2.002,5.889 -5.889,5.947 -3.906,-0.078 -5.859,-2.051 -5.859,-5.918 V 29.807 c -0.019,-3.867 1.915,-5.81 5.801,-5.83 z"
   fill="#223f82" />
	<path
   inkscape:connector-curvature="0"
   id="path841"
   d="m 195.518,23.86 c 1.953,0 3.424,0.479 4.41,1.436 0.985,0.957 4.457,5.039 10.414,12.246 6.055,-7.324 9.576,-11.459 10.563,-12.407 0.985,-0.947 2.455,-1.421 4.408,-1.421 1.914,0 3.385,0.494 4.41,1.479 1.025,0.986 1.508,2.466 1.449,4.438 0,2.07 -1.035,4.004 -3.105,5.801 l -9.961,11.777 9.99,11.63 c 2.207,2.07 3.223,4.063 3.047,5.977 0.098,1.974 -0.385,3.453 -1.449,4.439 -1.065,0.986 -2.545,1.46 -4.439,1.42 -2.012,0.02 -3.52,-0.487 -4.525,-1.523 -1.007,-1.035 -4.42,-5.078 -10.24,-12.129 -5.918,7.168 -9.379,11.266 -10.385,12.291 -1.007,1.025 -2.516,1.527 -4.527,1.508 -1.895,0.039 -3.373,-0.434 -4.438,-1.42 -1.065,-0.986 -1.549,-2.466 -1.451,-4.439 -0.176,-1.914 0.84,-3.896 3.047,-5.947 l 10.43,-11.66 -10.4,-11.748 c -2.07,-1.816 -3.105,-3.76 -3.105,-5.83 -0.059,-1.973 0.426,-3.452 1.451,-4.438 1.023,-0.986 2.492,-1.48 4.406,-1.48 z"
   fill="#223f82" />
</g>
<g
   transform="translate(-19.501,-23.714)"
   id="g845">
</g>
<g
   transform="translate(-19.501,-23.714)"
   id="g847">
</g>
<g
   transform="translate(-19.501,-23.714)"
   id="g849">
</g>
<g
   transform="translate(-19.501,-23.714)"
   id="g851">
</g>
<g
   transform="translate(-19.501,-23.714)"
   id="g853">
</g>
<g
   transform="translate(-19.501,-23.714)"
   id="g855">
</g>
</svg>
