<svg id="Layer_1" data-name="Layer 1" xmlns="http://www.w3.org/2000/svg" viewBox="0 0 809.01 340.61"><defs><style>.cls-1{fill:#f7b718;}.cls-2{fill:#3f57a6;}.cls-3{fill:#273e82;}.cls-4{fill:#e7a529;}.cls-5{fill:#fdfdfd;}.cls-6{fill:#06090a;}.cls-7{fill:#223f82;}</style></defs><title>Artboard 1</title><path class="cls-1" d="M114.18,180.62a84.29,84.29,0,0,1-19.83,9.77c-1.47-.1-2.53.83-3.71,1.48-7.85,4.31-14.55,10.15-21.29,15.92-.18-2.32.84-4.81-2.24-6.43-7.65-4-12.7-1.48-13.49,7.21-.14,1.57-.4,2.41-2.18,1.62-3.41-1.52-6.76-1-10.06.39A59.14,59.14,0,0,1,53,189.44c2.46-3,1.89-4.16-1-6.14C38.55,173.89,30,161.15,27,144.82a59.7,59.7,0,0,1,5-37.18A8.47,8.47,0,0,0,32.8,102c-2.62-14.15-3.4-28.48-4-42.82a6.55,6.55,0,0,1,.36-1.37C38.23,66,48.65,71.51,59,77.23c3,1.68,5.76,2,8.73.27,8.91-1.71,17.78-2.11,26.69.22,11.27,3,20.28,9.33,28.1,17.69,6.81,9.09,11.71,19,13.18,31.49,1.35-6.57,2.67-12.09,4.94-17.34,2.35-5.42,5.74-10.14,9.19-14.86,15-15.79,33.09-21.9,54.58-17,2.42,1.41,4.61.86,7-.39,11.16-5.85,22.23-11.79,32.27-21.3-1,8.22-1.83,15.47-2.88,22.68-1,6.91-2,13.85-4.18,20.52-.82,2.5.76,4.06,1.74,5.83,14.31,25.89,7.08,59.33-16.58,76.52A70.69,70.69,0,0,1,205.45,190c7.65,2.65,15.42,4.08,23.48,3.26,20.61-2.08,31.9-15.25,39.14-33.14,2.71-6.7,4.27-13.72,6.15-20.75,0,11.44-.3,22.9.09,34.32.33,9.93-2.74,18.7-7.69,27-9.61,16-24.5,24-42.33,27.39a74.24,74.24,0,0,1-16.77,1.4,40.39,40.39,0,0,0-4.81-12.87c-4.51-7.95-10.56-14.7-16.61-21.51-5.08-5.72-11.94-6.43-18.56-8.15l-10.31-6.72a64.8,64.8,0,0,1-21.72-37.69c-.06,1-.13,2-.19,2.94C132,159.42,125.61,171.54,114.18,180.62ZM233,133.55c0-23.49-18.31-42.06-41.59-42.11A41.89,41.89,0,0,0,149,133.3a42.31,42.31,0,0,0,42,42.1A41.88,41.88,0,0,0,233,133.55Zm-109.43-.21a42,42,0,0,0-84-.21,42,42,0,1,0,84,.21Z"/><path class="cls-2" d="M122.51,95.41c-7.82-8.36-16.83-14.74-28.1-17.69-8.91-2.33-17.78-1.93-26.69-.22l7.89-49c6.1-.19,12.1.9,18.14,1.52,8.5.87,17.12,1,25.51,2.49,13.19,2.28,26.23.9,39.3-.4,12.69-1.27,25.32-3.11,38.08-3.6q3.81,23.12,7.6,46.23a26.43,26.43,0,0,1,.16,3c-21.49-4.94-39.54,1.17-54.58,17A48.27,48.27,0,0,0,122.51,95.41Z"/><path class="cls-3" d="M196.64,28.55c-12.76.49-25.39,2.33-38.08,3.6-13.07,1.3-26.11,2.68-39.3.4-8.39-1.45-17-1.62-25.51-2.49-6-.62-12-1.71-18.14-1.52-5-1.65-10.32-1.46-15.49-2-18.51-2-37-3.78-55.57-5.61-2.66-.26-4.9-.53-4.51-4.25.23-2.15.78-3,3-3.26C19,11.78,34.85,10,50.75,8.33,73.09,5.93,95.49,4,117.77,1c14.68-1.95,29.1-.76,43.62.88,17.62,2,35.26,3.8,52.89,5.68q27.38,2.94,54.76,5.85c2.44.26,4.79,1.11,4.78,3.74,0,2.45-2.37,3.16-4.6,3.53C262,21.88,262,21.9,262,29.21q0,24.2-.06,48.37l-3.55-.07c0-17.49-.08-35,0-52.48,0-2.24-.19-3.34-3-3-18.75,2-37.52,3.9-56.28,5.82C198.21,27.9,197.28,27.75,196.64,28.55Z"/><path class="cls-3" d="M167.54,186.94c6.62,1.72,13.48,2.43,18.56,8.15,6.05,6.81,12.1,13.56,16.61,21.51a40.39,40.39,0,0,1,4.81,12.87c1.73,11.32,2.09,22.6-1,33.79-4.71,17.33-14.75,30.9-29.21,41.34a23.24,23.24,0,0,1-2.41,1.28c6-10.08,10.85-19.77,14-30.18,9.83-32.36,4.23-61.35-19.09-86.4C169.13,188.49,168.32,187.73,167.54,186.94Z"/><path class="cls-3" d="M137.57,232c-.35,1.92-1.81,2.29-2.93,3-4.28,2.55-8.59,5.06-12.9,7.57-1.38.81-2.61,1.8-1.67,3.57,1.06,2,2.63,1.38,4.14.47,5.44-3.29,10.86-6.6,16.34-9.82.91-.54,2.17-2.06,3.1-.34.67,1.24-.86,1.84-1.76,2.42-1.26.8-2.56,1.55-3.84,2.32a2.34,2.34,0,0,0-1,3.51c.76,1.24,2.06,1.31,3.3.62,2.29-1.26,4.55-2.58,6.83-3.86,1-.54,2.27-1.42,3-.28s-.68,1.94-1.59,2.49c-2.88,1.74-5.82,3.38-8.73,5.07-1.46.85-3,1.86-2,3.8s2.81,1.6,4.47.6c3.74-2.25,7.45-4.55,11.23-6.72,2.92-1.68,4.08-1,4.11,2.4.05,5.49-.07,11,0,16.48a4.21,4.21,0,0,1-2.12,4c-5.61,3.71-11.11,7.6-16.73,11.31-3.78,2.49-6.3,2.25-9.83-.6-4.56-3.68-9.08-7.42-13.71-11a5.93,5.93,0,0,1-2.55-5.09c.06-4.62,0-9.24,0-13.86a7.92,7.92,0,0,1,4.51-7.53c5.47-3,10.76-6.27,16.15-9.41C134.68,232.4,135.77,231.42,137.57,232Z"/><path class="cls-4" d="M195.32,327.36a15.5,15.5,0,0,1-2.11,8.24c-1.46,2.75-3.44,4.48-6.57,2.34-1.46-1-2.26-.1-3.27.58-2.38,1.61-4.9,2.21-7.15,0-1.41-1.37-2.1-.33-3.11.33-4.51,3-7.46,2.25-10.12-2.46-1.37-2.41-2.63-5-2.58-7.73.09-5.11-2.62-8.17-6.69-10.36-2.18-1.17-4.58-2.29-4-5.13a6.12,6.12,0,0,1,6.06-4.74c4.31-.11,8.58-.48,12.87-.84.61-.05,1.33.2,1.83,0,7.1-3.33,12.13,1.36,17.24,4.75S195.18,321.13,195.32,327.36Zm-22.09-15.82c0,.59-.15.88,0,1,.48.87,1,1.72,1.52,2.56,3.38,5.48,4.88,11.24,2.11,17.39-1,2.27-1.24,4.39,1.05,5.46,2.53,1.17,4.06-1,4.8-3C185.89,326.59,184.66,315.8,173.23,311.54Z"/><path class="cls-3" d="M69.35,207.79c6.74-5.77,13.44-11.61,21.29-15.92,1.18-.65,2.24-1.58,3.71-1.48-9.45,12.64-16.5,26.44-19.72,42-5.31,25.69.67,48.94,15.57,70.19.78,1.11,1.41,2.32,2.11,3.48l-.21,0c-16.7-8.47-27.64-21.58-32.41-40.18l9.29-.7c1.43.45,2.51.33,2.46-1.56s-.11-4-.19-6Q70.31,232.67,69.35,207.79Z"/><path class="cls-4" d="M92.1,306l.21,0a56.35,56.35,0,0,0,18.21,2.19,7.61,7.61,0,0,1,4.87,1.62c3.69,2.53,3.67,5.74-.26,7.8-4.76,2.49-8.09,5.62-7.9,11.55.06,1.87-1,3.85-1.8,5.66-2.71,6.16-5.68,7.14-11.28,3.61a2.31,2.31,0,0,0-3,0c-.57-1.58,1.15-3,.18-4.68-2.89-5.06-2.07-10.13-.2-15.38.85-2.38,3.4-3.9,3.38-6.83-8.59,3-12.71,11.05-10.52,20.12,1.34,5.55,2.32,6.47,7.19,6.74-.5.31-1,.86-1.52.91a39.67,39.67,0,0,1-13.06-1.56c-3.73-1-4.4-6.52-4.25-10.73.22-6.3,2.59-11.56,8.09-15.08l.2.2c-.78,2.42-2.63,4.19-3.85,6.34-2.54,4.49-4.13,9-1.41,14.1,1.31,2.47,3.46,4.49,5.72,3.78,2.11-.67,1.36-4,.67-5.68-2.65-6.47-.27-12,2.78-17.36,1.57-2.74.68-2.92-1.68-2.68l-.2-.23C85.39,308,89.07,307.67,92.1,306Z"/><path class="cls-4" d="M69.35,207.79q.95,24.89,1.9,49.76c.08,2,.13,4,.19,6s-1,2-2.46,1.56l-1.11-32.2c-.27-7.87-.51-15.73-.8-23.59-.12-3.36-2-5.29-5-5.23-3.31.07-5.67,2.36-5.58,5.52.53,17.23,1.1,34.46,1.62,51.69.12,4.07-1.41,8-.74,12.16a1.13,1.13,0,0,1-1.26,1.43,1.36,1.36,0,0,1-1.46-1.37c-.09-.86-.1-1.74-.12-2.62q-.86-25.83-1.69-51.68c-.11-3.62-1.9-5.58-5.05-5.52-3.55.06-5.66,2.27-5.55,5.89Q43,244.5,43.81,269.4a21.5,21.5,0,0,1,.06,3c-.11,1.07.73,2.77-1.38,2.79-1.74,0-1.37-1.48-1.48-2.5-.37-3.35-.65-6.71-1-10.06.39-15.47-.3-30.93-.7-46.39a8.75,8.75,0,0,1,1.53-4.67l.57-.93-.06-.06c3.3-1.38,6.65-1.91,10.06-.39,1.78.79,2-.05,2.18-1.62.79-8.69,5.84-11.24,13.49-7.21C70.19,203,69.17,205.47,69.35,207.79Z"/><path class="cls-3" d="M135.32,145.47c.06-1,.13-2,.19-2.94a64.8,64.8,0,0,0,21.72,37.69c-6.62,8.87-13.22,17.75-19.88,26.59-.45.59-.68,2-2.07,1.18Q135.29,176.73,135.32,145.47Z"/><path class="cls-2" d="M135.32,145.47q0,31.26,0,62.52-10.55-13.68-21.1-27.37C125.61,171.54,132,159.42,135.32,145.47Z"/><path class="cls-1" d="M39.34,216.24c.4,15.46,1.09,30.92.7,46.39A71.13,71.13,0,0,1,39.34,216.24Z"/><path class="cls-1" d="M258.37,77.51l3.55.07c4.38,2.65,5.73,5.91,3.86,9.42a6.19,6.19,0,0,1-6.14,3.42A6,6,0,0,1,254,86.21a6.24,6.24,0,0,1,1.58-6.87A19.53,19.53,0,0,1,258.37,77.51Z"/><path class="cls-1" d="M48.36,275.28c2.91-.87,3.62.41,4.14,2.38.7,2.64,1.78,5.18,2.56,7.8.24.8,1.55,1.9.17,2.51-1,.43-2.58.7-3.4-.63-2.13-3.5-4.67-6.88-6.08-10.67C44.78,274.05,47.87,275.64,48.36,275.28Z"/><path class="cls-4" d="M80.48,312l1.27-1c.12.14.25.27.38.4l-1.45.81Z"/><path class="cls-1" d="M41.44,210.64l-.57.93C40.86,211.14,40.94,210.76,41.44,210.64Z"/><path class="cls-4" d="M81.75,311l1-.53.2.23-.78.7C82,311.24,81.87,311.11,81.75,311Z"/><path class="cls-5" d="M233,133.55a41.88,41.88,0,0,1-42,41.85,42.31,42.31,0,0,1-42-42.1,41.89,41.89,0,0,1,42.41-41.86C214.66,91.49,233,110.06,233,133.55Zm-42.08,26.5a26.08,26.08,0,1,0,.36-52.15,26.08,26.08,0,1,0-.36,52.15Z"/><path class="cls-5" d="M123.54,133.34A42,42,0,1,1,81.7,91.44,42,42,0,0,1,123.54,133.34Zm-42,26.7a26.07,26.07,0,1,0,0-52.14,26.07,26.07,0,1,0,0,52.14Z"/><path class="cls-3" d="M122.51,95.41a48.27,48.27,0,0,1,27.31-.71c-3.45,4.72-6.84,9.44-9.19,14.86-2.27,5.25-3.59,10.77-4.94,17.34C134.22,114.43,129.32,104.5,122.51,95.41Z"/><path class="cls-1" d="M173.23,311.54c11.43,4.26,12.66,15,9.43,23.49-.74,1.93-2.27,4.14-4.8,3-2.29-1.07-2.07-3.19-1.05-5.46,2.77-6.15,1.27-11.91-2.11-17.39-.52-.84-1-1.69-1.52-2.56C173.08,312.42,173.19,312.13,173.23,311.54Z"/><path class="cls-1" d="M91.22,338.43c-4.87-.27-5.85-1.19-7.19-6.74-2.19-9.07,1.93-17.13,10.52-20.12,0,2.93-2.53,4.45-3.38,6.83-1.87,5.25-2.69,10.32.2,15.38,1,1.7-.75,3.1-.18,4.68Z"/><path class="cls-1" d="M82.13,311.37l.78-.7c2.36-.24,3.25-.06,1.68,2.68-3,5.34-5.43,10.89-2.78,17.36.69,1.7,1.44,5-.67,5.68-2.26.71-4.41-1.31-5.72-3.78-2.72-5.11-1.13-9.61,1.41-14.1,1.22-2.15,3.07-3.92,3.85-6.34C81.17,311.91,81.65,311.64,82.13,311.37Z"/><path class="cls-2" d="M190.89,160.05A26.08,26.08,0,1,1,217.2,134.2,25.77,25.77,0,0,1,190.89,160.05Zm-1.85-40c-1.08-.77-1.84-1.89-3.24-2.33-5.56-1.76-9.3,2.54-8.06,9.34-.26,1-.54,1.91-.79,2.87a14.72,14.72,0,1,0,28.54,7.08,13.64,13.64,0,0,0-4.59-13.83C197.6,120.38,193.76,118.22,189,120.1Z"/><path class="cls-2" d="M81.58,160a26.07,26.07,0,1,1,26.11-26A25.67,25.67,0,0,1,81.58,160ZM67.22,128.73c-2.18,8.14.51,15,7.25,18.47,6.27,3.22,13.86,1.38,18.41-4.47,3.68-4.73,3.72-12.22.23-17.18-3.39-4.8-11-7.85-15.73-5.41-2.77-2.47-5.74-3.28-9-.93C65.51,121.34,65.18,124.36,67.22,128.73Z"/><path class="cls-6" d="M189,120.1c4.72-1.88,8.56.28,11.86,3.13a13.64,13.64,0,0,1,4.59,13.83A14.72,14.72,0,1,1,177,130c.25-1,.53-1.91.79-2.87,3.33,3.44,6.4,4.16,9.41,2.19S190.79,124.31,189,120.1Z"/><path class="cls-5" d="M189,120.1c1.75,4.21,1.13,7.23-1.89,9.2s-6.08,1.25-9.41-2.19c-1.24-6.8,2.5-11.1,8.06-9.34C187.2,118.21,188,119.33,189,120.1Z"/><path class="cls-6" d="M77.38,120.14c4.74-2.44,12.34.61,15.73,5.41,3.49,5,3.45,12.45-.23,17.18-4.55,5.85-12.14,7.69-18.41,4.47-6.74-3.46-9.43-10.33-7.25-18.47,3,2.17,6,3.11,9.18.52C79.05,127.1,79.31,124.21,77.38,120.14Z"/><path class="cls-5" d="M77.38,120.14c1.93,4.07,1.67,7-1,9.11-3.18,2.59-6.23,1.65-9.18-.52-2-4.37-1.71-7.39,1.2-9.52C71.64,116.86,74.61,117.67,77.38,120.14Z"/><path id="path833" class="cls-7" d="M351.61,120a58.27,58.27,0,0,1,28,7.37A53.07,53.07,0,0,1,401,148.43a57.07,57.07,0,0,1,.21,57,52.91,52.91,0,0,1-21.11,21.07,57.47,57.47,0,0,1-56.81,0,53,53,0,0,1-21.11-21.07,57.39,57.39,0,0,1,.11-57,52.38,52.38,0,0,1,21.25-21.07A58.4,58.4,0,0,1,351.61,120Zm-13.92,32a26.33,26.33,0,0,0-10.64,10.54A28.54,28.54,0,0,0,327,191a26.66,26.66,0,0,0,10.57,10.54,28.63,28.63,0,0,0,28.4,0A26.75,26.75,0,0,0,376.53,191a28.61,28.61,0,0,0-.07-28.51A26.36,26.36,0,0,0,365.78,152a28.78,28.78,0,0,0-28.09,0Z"/><path id="path835" class="cls-7" d="M423,219.8V134.37q-.08-14.37,14.24-14.23,14.16.14,14.24,14.23v50q14.24-14.23,17.9-17.94t10.5-3.7q7,0,10.57,3.59t17.83,18.33V134.37q.22-14.31,14.31-14.38,14.39.23,14.38,14.38l-.07,85.43q-.06,14.1-14.23,14.17-7,0-10.61-3.67t-32-32.14q-28.83,28.68-32.24,32.17T437.18,234Q423,234,423,219.8Z"/><path id="path837" class="cls-7" d="M565.39,119.85q14.31.36,14.45,14l-.15,71.48h56.6q14.38.06,14.38,14.38-.07,14-14.1,14.16H565.39q-14.17,0-14.24-13.81V134.23Q551.23,120.13,565.39,119.85Z"/><path id="path839" class="cls-7" d="M679.15,120q14.24.15,14.45,14.1v85.57q-.15,14.24-14.31,14.45-14.24-.29-14.24-14.38V134.16Q665,120.06,679.15,120Z"/><path id="path841" class="cls-7" d="M722.36,119.71q7.13,0,10.72,3.49T758.38,153q22.07-26.7,25.67-30.15t10.71-3.46q7,0,10.72,3.6T809,133.73q0,7.54-7.55,14.1l-24.2,28.62,24.27,28.26q8.06,7.53,7.41,14.52.35,7.2-3.52,10.79t-10.79,3.45q-7.33.06-11-3.71t-24.88-29.47q-21.57,26.13-25.23,29.87t-11,3.66q-6.91.15-10.79-3.45t-3.52-10.78q-.65-7,7.4-14.45l25.34-28.34-25.27-28.54q-7.54-6.63-7.54-14.17-.23-7.2,3.52-10.78t10.71-3.6Z"/></svg>